<svg width="92" height="77" viewBox="0 0 92 77" fill="none" xmlns="http://www.w3.org/2000/svg">
<mask id="path-1-outside-1_113_1201" maskUnits="userSpaceOnUse" x="0" y="0" width="92" height="77" fill="black">
<rect fill="white" width="92" height="77"/>
<path d="M2.76 75.64L16.68 22.36L20.76 40.36C15.16 40.36 10.44 38.6 6.6 35.08C2.92 31.56 1.08 26.84 1.08 20.92C1.08 15 2.92 10.28 6.6 6.76C10.44 3.08 15.08 1.24 20.52 1.24C26.12 1.24 30.76 3.08 34.44 6.76C38.12 10.44 39.96 15.16 39.96 20.92C39.96 22.68 39.8 24.52 39.48 26.44C39.32 28.2 38.84 30.28 38.04 32.68C37.4 34.92 36.28 37.88 34.68 41.56L22.2 75.64H2.76ZM53.64 75.64L67.56 22.36L71.64 40.36C66.04 40.36 61.32 38.6 57.48 35.08C53.8 31.56 51.96 26.84 51.96 20.92C51.96 15 53.8 10.28 57.48 6.76C61.32 3.08 65.96 1.24 71.4 1.24C77 1.24 81.64 3.08 85.32 6.76C89 10.44 90.84 15.16 90.84 20.92C90.84 22.68 90.68 24.52 90.36 26.44C90.2 28.2 89.72 30.28 88.92 32.68C88.28 34.92 87.16 37.88 85.56 41.56L73.08 75.64H53.64Z"/>
</mask>
<path d="M2.76 75.64L1.79248 75.3872L1.46517 76.64H2.76V75.64ZM16.68 22.36L17.6553 22.1389L15.7125 22.1072L16.68 22.36ZM20.76 40.36V41.36H22.012L21.7353 40.1389L20.76 40.36ZM6.6 35.08L5.90878 35.8026L5.91645 35.81L5.92428 35.8171L6.6 35.08ZM6.6 6.76L7.29122 7.48264L7.29191 7.48199L6.6 6.76ZM39.48 26.44L38.4936 26.2756L38.4875 26.3123L38.4841 26.3494L39.48 26.44ZM38.04 32.68L37.0913 32.3638L37.0844 32.3844L37.0785 32.4053L38.04 32.68ZM34.68 41.56L33.7629 41.1613L33.7511 41.1884L33.741 41.2161L34.68 41.56ZM22.2 75.64V76.64H22.8987L23.139 75.9839L22.2 75.64ZM53.64 75.64L52.6725 75.3872L52.3452 76.64H53.64V75.64ZM67.56 22.36L68.5353 22.1389L66.5925 22.1072L67.56 22.36ZM71.64 40.36V41.36H72.892L72.6153 40.1389L71.64 40.36ZM57.48 35.08L56.7888 35.8026L56.7965 35.81L56.8043 35.8171L57.48 35.08ZM57.48 6.76L58.1712 7.48264L58.1719 7.48199L57.48 6.76ZM90.36 26.44L89.3736 26.2756L89.3675 26.3123L89.3641 26.3494L90.36 26.44ZM88.92 32.68L87.9713 32.3638L87.9645 32.3844L87.9585 32.4053L88.92 32.68ZM85.56 41.56L84.6429 41.1613L84.6311 41.1884L84.621 41.2161L85.56 41.56ZM73.08 75.64V76.64H73.7787L74.019 75.9839L73.08 75.64ZM2.76 75.64L3.72752 75.8928L17.6475 22.6128L16.68 22.36L15.7125 22.1072L1.79248 75.3872L2.76 75.64ZM16.68 22.36L15.7047 22.5811L19.7847 40.5811L20.76 40.36L21.7353 40.1389L17.6553 22.1389L16.68 22.36ZM20.76 40.36V39.36C15.3897 39.36 10.9167 37.6804 7.27573 34.3428L6.6 35.08L5.92428 35.8171C9.96327 39.5196 14.9303 41.36 20.76 41.36V40.36ZM6.6 35.08L7.29122 34.3573C3.84081 31.057 2.08 26.6153 2.08 20.92H1.08H0.0800009C0.0800009 27.0646 1.99919 32.063 5.90878 35.8026L6.6 35.08ZM1.08 20.92H2.08C2.08 15.2246 3.84081 10.783 7.29122 7.48264L6.6 6.76L5.90878 6.03735C1.99919 9.77696 0.0800009 14.7753 0.0800009 20.92H1.08ZM6.6 6.76L7.29191 7.48199C10.9411 3.98487 15.3313 2.24 20.52 2.24V1.24V0.239998C14.8287 0.239998 9.93894 2.17512 5.9081 6.03801L6.6 6.76ZM20.52 1.24V2.24C25.8771 2.24 30.2556 3.98984 33.7329 7.46711L34.44 6.76L35.1471 6.05289C31.2644 2.17016 26.3629 0.239998 20.52 0.239998V1.24ZM34.44 6.76L33.7329 7.46711C37.2045 10.9387 38.96 15.3941 38.96 20.92H39.96H40.96C40.96 14.9258 39.0355 9.9413 35.1471 6.05289L34.44 6.76ZM39.96 20.92H38.96C38.96 22.6195 38.8055 24.4043 38.4936 26.2756L39.48 26.44L40.4664 26.6044C40.7945 24.6357 40.96 22.7405 40.96 20.92H39.96ZM39.48 26.44L38.4841 26.3494C38.3334 28.0076 37.8764 30.0084 37.0913 32.3638L38.04 32.68L38.9887 32.9962C39.8036 30.5516 40.3066 28.3924 40.4759 26.5305L39.48 26.44ZM38.04 32.68L37.0785 32.4053C36.4561 34.5835 35.356 37.4973 33.7629 41.1613L34.68 41.56L35.5971 41.9587C37.204 38.2627 38.3439 35.2565 39.0015 32.9547L38.04 32.68ZM34.68 41.56L33.741 41.2161L21.261 75.2961L22.2 75.64L23.139 75.9839L35.619 41.9039L34.68 41.56ZM22.2 75.64V74.64H2.76V75.64V76.64H22.2V75.64ZM53.64 75.64L54.6075 75.8928L68.5275 22.6128L67.56 22.36L66.5925 22.1072L52.6725 75.3872L53.64 75.64ZM67.56 22.36L66.5847 22.5811L70.6647 40.5811L71.64 40.36L72.6153 40.1389L68.5353 22.1389L67.56 22.36ZM71.64 40.36V39.36C66.2697 39.36 61.7967 37.6804 58.1557 34.3428L57.48 35.08L56.8043 35.8171C60.8433 39.5196 65.8103 41.36 71.64 41.36V40.36ZM57.48 35.08L58.1712 34.3573C54.7208 31.057 52.96 26.6153 52.96 20.92H51.96H50.96C50.96 27.0646 52.8792 32.063 56.7888 35.8026L57.48 35.08ZM51.96 20.92H52.96C52.96 15.2246 54.7208 10.783 58.1712 7.48264L57.48 6.76L56.7888 6.03735C52.8792 9.77696 50.96 14.7753 50.96 20.92H51.96ZM57.48 6.76L58.1719 7.48199C61.8211 3.98487 66.2113 2.24 71.4 2.24V1.24V0.239998C65.7087 0.239998 60.8189 2.17512 56.7881 6.03801L57.48 6.76ZM71.4 1.24V2.24C76.7571 2.24 81.1356 3.98984 84.6129 7.46711L85.32 6.76L86.0271 6.05289C82.1444 2.17016 77.2429 0.239998 71.4 0.239998V1.24ZM85.32 6.76L84.6129 7.46711C88.0845 10.9387 89.84 15.3941 89.84 20.92H90.84H91.84C91.84 14.9258 89.9155 9.9413 86.0271 6.05289L85.32 6.76ZM90.84 20.92H89.84C89.84 22.6195 89.6855 24.4043 89.3736 26.2756L90.36 26.44L91.3464 26.6044C91.6745 24.6357 91.84 22.7405 91.84 20.92H90.84ZM90.36 26.44L89.3641 26.3494C89.2134 28.0076 88.7565 30.0084 87.9713 32.3638L88.92 32.68L89.8687 32.9962C90.6836 30.5516 91.1866 28.3924 91.3559 26.5305L90.36 26.44ZM88.92 32.68L87.9585 32.4053C87.3361 34.5835 86.236 37.4973 84.6429 41.1613L85.56 41.56L86.4771 41.9587C88.084 38.2627 89.2239 35.2565 89.8815 32.9547L88.92 32.68ZM85.56 41.56L84.621 41.2161L72.141 75.2961L73.08 75.64L74.019 75.9839L86.499 41.9039L85.56 41.56ZM73.08 75.64V74.64H53.64V75.64V76.64H73.08V75.64Z" fill="#9ED8DB" mask="url(#path-1-outside-1_113_1201)"/>
</svg>
