<svg width="20" height="21" viewBox="0 0 20 21" fill="none" xmlns="http://www.w3.org/2000/svg">
<path opacity="0.34" d="M10.0001 7.075L9.10838 8.625C8.90838 8.96666 9.07505 9.25 9.46672 9.25H10.5251C10.9251 9.25 11.0834 9.53333 10.8834 9.875L10.0001 11.425" stroke="#004777" stroke-width="1.5" stroke-linecap="round" stroke-linejoin="round"/>
<path d="M6.91647 15.5333V14.5667C4.9998 13.4083 3.4248 11.15 3.4248 8.75C3.4248 4.625 7.21647 1.39167 11.4998 2.325C13.3831 2.74167 15.0331 3.99167 15.8915 5.71667C17.6331 9.21667 15.7998 12.9333 13.1081 14.5583V15.525C13.1081 15.7667 13.1998 16.325 12.3081 16.325H7.71647C6.7998 16.3333 6.91647 15.975 6.91647 15.5333Z" stroke="#004777" stroke-width="1.5" stroke-linecap="round" stroke-linejoin="round"/>
<path opacity="0.4" d="M7.08301 18.8333C8.99134 18.2917 11.008 18.2917 12.9163 18.8333" stroke="#9ED8DB" stroke-width="1.5" stroke-linecap="round" stroke-linejoin="round"/>
</svg>
