<svg width="40" height="40" viewBox="0 0 40 40" fill="none" xmlns="http://www.w3.org/2000/svg">
<path d="M25.0875 13.125L25.6562 13.5937C26.39 14.1526 27.0853 14.7602 27.7375 15.4125C27.9437 15.9125 27.8187 16.325 27.5625 17.0687C27.2092 17.9522 27.0412 18.8989 27.0687 19.85C27.1344 20.5556 27.2942 21.2492 27.5437 21.9125C27.5884 22.0321 27.6687 22.1352 27.7737 22.2078C27.8788 22.2804 28.0035 22.3191 28.1312 22.3187C28.2057 22.3185 28.2797 22.3058 28.35 22.2812C28.4286 22.2558 28.5015 22.215 28.5642 22.1612C28.627 22.1074 28.6785 22.0417 28.7157 21.9678C28.7529 21.894 28.7751 21.8136 28.781 21.7311C28.7868 21.6486 28.7763 21.5658 28.75 21.4875C28.5403 20.9415 28.4057 20.3696 28.35 19.7875C28.3262 19.0057 28.4623 18.2273 28.75 17.5C28.9423 17.107 29.0541 16.6795 29.0788 16.2426C29.1035 15.8058 29.0406 15.3684 28.8937 14.9562C28.7312 14.55 28.5937 14.4187 26.4625 12.6562L25.8937 12.1875C24.5312 11.05 24.35 10.9 24.2562 10.6937C23.8187 9.80622 24.1 8.45622 25.0437 6.86872C25.4134 6.26683 25.885 5.73388 26.4375 5.29372L26.4937 5.24997C26.6181 5.13477 26.6915 4.9749 26.698 4.80553C26.7044 4.63616 26.6433 4.47116 26.5281 4.34684C26.4129 4.22252 26.253 4.14906 26.0837 4.14261C25.9143 4.13617 25.7493 4.19727 25.625 4.31247C24.9555 4.85139 24.39 5.50798 23.9562 6.24997C22.4687 8.74997 22.7062 10.3437 23.125 11.25C23.3375 11.6812 23.5062 11.8187 25.0875 13.125Z" fill="#9ED8DB"/>
<path d="M13.2371 9.78121C14.2227 10.3334 15.3126 10.674 16.4371 10.7812C16.8564 10.7842 17.2709 10.6923 17.6496 10.5125C18.6059 10.175 19.0184 9.03121 19.5809 7.46246C20.0674 5.95165 20.7481 4.51043 21.6059 3.17496C21.6677 3.10827 21.7141 3.02891 21.7421 2.94242C21.77 2.85593 21.7787 2.76439 21.7677 2.67417C21.7566 2.58396 21.726 2.49725 21.678 2.42008C21.6299 2.34291 21.5657 2.27714 21.4896 2.22737C21.4136 2.17759 21.3276 2.145 21.2376 2.13186C21.1477 2.11873 21.056 2.12537 20.9689 2.15132C20.8818 2.17727 20.8014 2.22191 20.7333 2.28213C20.6652 2.34234 20.6111 2.41668 20.5746 2.49996C19.6572 3.92265 18.9282 5.45839 18.4059 7.06871C18.0246 8.13746 17.6246 9.23746 17.2184 9.36871L17.1371 9.40621C16.2621 9.83746 15.0996 9.29996 13.7621 8.67496C11.9999 7.84961 10.4291 6.66612 9.14965 5.19996C9.10387 5.12011 9.04103 5.05135 8.9656 4.99861C8.89018 4.94586 8.80404 4.91042 8.71333 4.89483C8.62262 4.87923 8.52959 4.88386 8.44088 4.90839C8.35217 4.93291 8.26997 4.97673 8.20015 5.0367C8.13034 5.09668 8.07463 5.17133 8.03701 5.25533C7.99939 5.33933 7.98079 5.4306 7.98253 5.52262C7.98428 5.61465 8.00632 5.70515 8.04709 5.78766C8.08787 5.87018 8.14636 5.94267 8.2184 5.99996C9.61193 7.59377 11.3208 8.88129 13.2371 9.78121Z" fill="#9ED8DB"/>
<path d="M22.7183 26.6624C22.3682 25.8249 20.5432 22.7124 18.7495 22.2062C17.8682 21.8874 17.2307 22.0499 15.3432 22.5374L15.0933 22.5999C11.737 23.4687 10.7182 23.6937 10.4495 23.5062C10.1807 23.3187 10.1807 23.1874 10.0433 22.7562C9.82989 21.9996 9.44491 21.3023 8.91825 20.7187C8.38183 20.186 7.77138 19.7334 7.10575 19.3749C6.0745 18.8187 4.48075 18.7187 2.49325 19.0937C2.41117 19.1085 2.33281 19.1393 2.26264 19.1843C2.19246 19.2294 2.13185 19.2878 2.08426 19.3563C1.98815 19.4946 1.95091 19.6654 1.98075 19.8312C1.99552 19.9133 2.02632 19.9916 2.07138 20.0618C2.11644 20.132 2.17487 20.1926 2.24336 20.2402C2.38167 20.3363 2.55249 20.3735 2.71825 20.3437C4.3745 20.0374 5.75575 20.0937 6.512 20.4999C7.05638 20.793 7.55534 21.1635 7.99325 21.5999C8.39624 22.0327 8.68983 22.5556 8.8495 23.1249C8.96653 23.6851 9.28442 24.183 9.74325 24.5249C10.4808 25.0437 11.062 24.9187 15.4058 23.7999L15.6557 23.7374C17.4307 23.2812 17.8245 23.1874 18.3682 23.3812C19.5057 23.7062 21.1495 26.1499 21.5745 27.1312C21.812 27.6374 22.0308 28.0874 22.2558 28.5062C22.2908 28.5844 22.3416 28.6545 22.405 28.7122C22.4683 28.7699 22.5428 28.814 22.6239 28.8417C22.705 28.8694 22.7909 28.8801 22.8763 28.8732C22.9617 28.8663 23.0448 28.8419 23.1204 28.8015C23.196 28.7612 23.2624 28.7057 23.3157 28.6385C23.3689 28.5714 23.4078 28.494 23.4298 28.4112C23.4519 28.3284 23.4567 28.242 23.444 28.1573C23.4312 28.0725 23.4012 27.9913 23.3558 27.9187C23.1245 27.5562 22.9307 27.1187 22.7183 26.6624Z" fill="#9ED8DB"/>
<path d="M38.0434 24.4688C38.0026 24.3971 37.948 24.3343 37.8828 24.2839C37.8176 24.2335 37.743 24.1964 37.6634 24.1749C37.5838 24.1534 37.5008 24.1479 37.419 24.1586C37.3373 24.1694 37.2585 24.1962 37.1872 24.2375L30.1559 28.2938L23.1247 24.2375C22.9818 24.1628 22.8156 24.1462 22.6608 24.1911C22.506 24.236 22.3745 24.339 22.2939 24.4785C22.2132 24.6181 22.1896 24.7834 22.2279 24.94C22.2663 25.0966 22.3636 25.2323 22.4997 25.3188L29.5309 29.375V37.5C29.5309 37.6658 29.5968 37.8247 29.714 37.942C29.8312 38.0592 29.9902 38.125 30.1559 38.125C30.3217 38.125 30.4806 38.0592 30.5979 37.942C30.7151 37.8247 30.7809 37.6658 30.7809 37.5V29.375L37.8122 25.3188C37.9551 25.2363 38.0597 25.1007 38.103 24.9414C38.1463 24.7822 38.1249 24.6123 38.0434 24.4688Z" fill="#9ED8DB"/>
<path d="M37.8122 24.2375L33.5497 21.775C34.3639 18.4741 34.1076 14.9998 32.8179 11.8541C31.5281 8.70843 29.2717 6.05422 26.3747 4.27497C24.802 3.28924 23.0667 2.59088 21.2497 2.21247C18.8703 1.72146 16.4106 1.77614 14.0555 2.37241C11.7003 2.96868 9.51093 4.09102 7.65189 5.65509C5.79285 7.21915 4.3125 9.18425 3.32212 11.4027C2.33173 13.6211 1.85707 16.0352 1.9338 18.4635C2.01054 20.8917 2.63667 23.271 3.76514 25.4225C4.89362 27.574 6.49508 29.4417 8.44916 30.8852C10.4032 32.3288 12.6591 33.3107 15.0472 33.7571C17.4353 34.2035 19.8936 34.1027 22.2372 33.4625C22.2817 33.618 22.3847 33.7501 22.5247 33.8312L29.8747 38.075C29.9699 38.129 30.0777 38.157 30.1872 38.1562C30.2966 38.157 30.4044 38.129 30.4997 38.075L37.8122 33.8C37.9075 33.7449 37.9867 33.6656 38.0415 33.5701C38.0964 33.4746 38.1251 33.3664 38.1247 33.2562V24.775C38.124 24.6659 38.0948 24.5589 38.04 24.4646C37.9852 24.3703 37.9066 24.292 37.8122 24.2375ZM3.12465 17.9437C3.12377 15.7413 3.61402 13.5665 4.55969 11.5775C5.50537 9.58847 6.88268 7.83537 8.59135 6.4458C10.3 5.05623 12.2971 4.06517 14.4371 3.54476C16.5771 3.02436 18.8062 2.9877 20.9622 3.43747C22.6465 3.77455 24.2572 4.4095 25.7184 5.31247C27.8819 6.63238 29.6678 8.4888 30.903 10.7018C32.1382 12.9148 32.7807 15.4094 32.7684 17.9437C32.7691 19.0138 32.6517 20.0807 32.4184 21.125L30.4684 20C30.3734 19.9451 30.2656 19.9162 30.1559 19.9162C30.0462 19.9162 29.9384 19.9451 29.8434 20L22.4997 24.2375C22.4052 24.292 22.3266 24.3703 22.2718 24.4646C22.217 24.5589 22.1878 24.6659 22.1872 24.775V32.1375C20.8129 32.5523 19.3851 32.7629 17.9497 32.7625C14.0199 32.7592 10.252 31.197 7.47266 28.4189C4.69333 25.6407 3.12962 21.8735 3.12465 17.9437ZM36.8747 32.9L30.1559 36.7812L23.4309 32.9V25.1375L26.6559 23.2625L32.9059 27.4062V30C32.9059 30.1657 32.9718 30.3247 33.089 30.4419C33.2062 30.5591 33.3651 30.625 33.5309 30.625C33.6967 30.625 33.8556 30.5591 33.9728 30.4419C34.0901 30.3247 34.1559 30.1657 34.1559 30V27.0875C34.1571 26.984 34.1326 26.8819 34.0846 26.7903C34.0366 26.6987 33.9666 26.6204 33.8809 26.5625L27.8997 22.5812L30.1559 21.25L36.8747 25.1375V32.9Z" fill="#004777"/>
</svg>
