<svg width="24" height="25" viewBox="0 0 24 25" fill="none" xmlns="http://www.w3.org/2000/svg">
<path opacity="0.4" d="M14 9.79999V12.75H16.63C16.82 12.75 16.96 12.92 16.92 13.11L16.54 15.01C16.51 15.15 16.39 15.25 16.25 15.25H14V22.5H11V15.25H9.29999C9.12999 15.25 9 15.12 9 14.95V13.05C9 12.88 9.12999 12.75 9.29999 12.75H11V9.5C11 7.84 12.34 6.5 14 6.5H16.7C16.87 6.5 17 6.62999 17 6.79999V9.20001C17 9.37001 16.87 9.5 16.7 9.5H14.3C14.13 9.5 14 9.62999 14 9.79999Z" stroke="white" stroke-width="1.5" stroke-miterlimit="10" stroke-linecap="round"/>
<path d="M15 22.5H9C4 22.5 2 20.5 2 15.5V9.5C2 4.5 4 2.5 9 2.5H15C20 2.5 22 4.5 22 9.5V15.5C22 20.5 20 22.5 15 22.5Z" stroke="white" stroke-width="1.5" stroke-linecap="round" stroke-linejoin="round"/>
</svg>
