<svg width="40" height="40" viewBox="0 0 40 40" fill="none" xmlns="http://www.w3.org/2000/svg">
<path fill-rule="evenodd" clip-rule="evenodd" d="M37.3755 28.1429H2.62449C1.17165 28.1429 0 26.9713 0 25.5184V6.58464C0 5.15523 1.17165 3.98358 2.62449 3.98358H8.13122C8.45929 3.98358 8.74048 4.24134 8.74048 4.59284C8.74048 4.9209 8.45929 5.17866 8.13122 5.17866H2.62449C1.8512 5.17866 1.21851 5.81135 1.21851 6.58464V25.5184C1.21851 26.3152 1.8512 26.9244 2.62449 26.9244H37.3755C38.1488 26.9244 38.7815 26.3152 38.7815 25.5184V6.58464C38.7815 5.81135 38.1488 5.17866 37.3755 5.17866H31.8688C31.5407 5.17866 31.2595 4.9209 31.2595 4.59284C31.2595 4.24134 31.5407 3.98358 31.8688 3.98358H37.3755C38.8049 3.98358 40 5.15523 40 6.58464V25.5184C40 26.9713 38.8049 28.1429 37.3755 28.1429Z" fill="#004777"/>
<path fill-rule="evenodd" clip-rule="evenodd" d="M24.1126 33.556H15.8642C15.5831 33.556 15.3487 33.3685 15.2784 33.0873L14.013 27.6743C13.9896 27.4868 14.013 27.2994 14.1302 27.1588C14.2474 27.0182 14.4348 26.9244 14.6223 26.9244H25.378C25.5655 26.9244 25.7295 27.0182 25.8467 27.1588C25.9638 27.2994 26.0107 27.4868 25.9638 27.6743L24.7219 33.0873C24.6516 33.3685 24.3938 33.556 24.1126 33.556ZM16.3563 32.3609H23.644L24.6282 28.143H15.3722L16.3563 32.3609Z" fill="#004777"/>
<path fill-rule="evenodd" clip-rule="evenodd" d="M32.2909 37.8676H7.6863C7.47541 37.8676 7.26451 37.7504 7.17078 37.5629C7.05362 37.3521 7.07705 37.1177 7.19421 36.9303L10.0765 32.6186C10.1702 32.4546 10.3577 32.3608 10.5686 32.3608H29.4321C29.6195 32.3608 29.807 32.4546 29.9241 32.6186L32.8064 36.9303C32.9236 37.1177 32.947 37.3521 32.8298 37.5629C32.7361 37.7504 32.5252 37.8676 32.2909 37.8676ZM8.83452 36.6725H31.1661L29.104 33.5559H10.8966L8.83452 36.6725Z" fill="#004777"/>
<path fill-rule="evenodd" clip-rule="evenodd" d="M29.7832 24.0187H10.2167C9.88862 24.0187 9.60742 23.7375 9.60742 23.4095V6.7721C9.60742 6.44404 9.88862 6.16284 10.2167 6.16284H29.7832C30.1112 6.16284 30.3924 6.44404 30.3924 6.7721V23.4095C30.3924 23.7375 30.1112 24.0187 29.7832 24.0187ZM10.8259 22.8002H29.1739V7.38135H10.8259V22.8002Z" fill="#9ED8DB"/>
<path fill-rule="evenodd" clip-rule="evenodd" d="M17.3173 15.7C17.2235 15.7 17.1532 15.6766 17.0829 15.6532C16.8486 15.5594 16.708 15.3485 16.708 15.0908V6.7721C16.708 6.44404 16.9658 6.16284 17.3173 6.16284H22.6834C23.0115 6.16284 23.2927 6.44404 23.2927 6.7721V15.0908C23.2927 15.3485 23.1521 15.5594 22.9177 15.6532C22.7068 15.7469 22.4491 15.7 22.2616 15.536L19.9652 13.3802L17.7391 15.536C17.6219 15.6532 17.4579 15.7 17.3173 15.7ZM19.9418 11.9508C20.1058 11.9508 20.2464 11.9976 20.3635 12.1148L22.0741 13.7082V7.38135H17.9265V13.6614L19.5434 12.1148C19.6606 11.9976 19.8012 11.9508 19.9418 11.9508Z" fill="#9ED8DB"/>
<path fill-rule="evenodd" clip-rule="evenodd" d="M31.8683 7.38136H8.13074C7.80268 7.38136 7.52148 7.12359 7.52148 6.7721V2.7182C7.52148 2.39014 7.80268 2.10895 8.13074 2.10895H31.8683C32.1964 2.10895 32.4775 2.39014 32.4775 2.7182V6.7721C32.4775 7.12359 32.1964 7.38136 31.8683 7.38136ZM8.74 6.16284H31.259V3.32746H8.74V6.16284Z" fill="#9ED8DB"/>
<path fill-rule="evenodd" clip-rule="evenodd" d="M26.5022 18.3714H13.497C13.1689 18.3714 12.8877 18.1136 12.8877 17.7621C12.8877 17.4341 13.1689 17.1529 13.497 17.1529H26.5022C26.8303 17.1529 27.1115 17.4341 27.1115 17.7621C27.1115 18.1136 26.8303 18.3714 26.5022 18.3714Z" fill="#9ED8DB"/>
<path fill-rule="evenodd" clip-rule="evenodd" d="M26.5022 21.3474H13.497C13.1689 21.3474 12.8877 21.0662 12.8877 20.7381C12.8877 20.41 13.1689 20.1288 13.497 20.1288H26.5022C26.8303 20.1288 27.1115 20.41 27.1115 20.7381C27.1115 21.0662 26.8303 21.3474 26.5022 21.3474Z" fill="#9ED8DB"/>
<path fill-rule="evenodd" clip-rule="evenodd" d="M36.6021 18.2074C36.485 18.2074 36.3912 18.184 36.2975 18.1371L33.8136 16.7077L33.1809 17.7856C33.0638 17.9965 32.8294 18.1137 32.5951 18.0902C32.3373 18.0434 32.1499 17.8793 32.0796 17.645L31.0017 13.5911C30.9079 13.263 31.0954 12.935 31.4235 12.8412L35.4774 11.7633C35.7117 11.693 35.9694 11.7868 36.11 11.9742C36.2506 12.1617 36.2741 12.4429 36.1569 12.6538L35.5242 13.7317L38.0081 15.1611C38.3127 15.3251 38.4065 15.7001 38.2424 16.0047L37.1177 17.9028C37.0474 18.0434 36.9068 18.1605 36.7662 18.184C36.6959 18.2074 36.649 18.2074 36.6021 18.2074ZM33.6027 15.2548C33.6965 15.2548 33.8136 15.3017 33.9073 15.3486L36.3912 16.778L36.8833 15.911L34.3994 14.4815C34.1182 14.3175 34.0011 13.9426 34.1651 13.6614L34.376 13.3099L32.3139 13.8489L32.8763 15.911L33.0638 15.5595C33.1575 15.4189 33.2747 15.3251 33.4387 15.2783C33.4856 15.2783 33.5324 15.2548 33.6027 15.2548Z" fill="#9ED8DB"/>
</svg>
