<svg width="106" height="80" viewBox="0 0 106 80" fill="none" xmlns="http://www.w3.org/2000/svg">
<g clip-path="url(#clip0_119_568)">
<path d="M106 0H0V80H106V0Z" fill="white"/>
<path d="M7.24786 52.7567V40.8216H2.88672V38.227H14.4334V40.8216H10.093V52.7567H7.24786ZM16.3021 52.7567V38.227H21.7016C22.7262 38.227 23.633 38.4276 24.4222 38.8289C25.2113 39.2302 25.8274 39.7837 26.2704 40.4895C26.7135 41.1814 26.935 41.9909 26.935 42.918C26.935 43.8313 26.6996 44.6477 26.2289 45.3673C25.772 46.073 25.1421 46.6266 24.3391 47.0279C23.5361 47.4153 22.6223 47.609 21.5978 47.609H19.1472V52.7567H16.3021ZM24.2976 52.7567L20.9332 46.9241L23.1138 45.3673L27.5165 52.7567H24.2976ZM19.1472 45.0144H21.7224C22.1516 45.0144 22.5323 44.9245 22.8646 44.7446C23.2107 44.5647 23.4807 44.3156 23.6745 43.9974C23.8822 43.6791 23.986 43.3193 23.986 42.918C23.986 42.2953 23.7576 41.7902 23.3007 41.4028C22.8577 41.0153 22.2831 40.8216 21.577 40.8216H19.1472V45.0144ZM29.6873 52.7567V38.227H32.5325V52.7567H29.6873ZM42.4398 53.0058C40.9584 53.0058 39.6431 52.6875 38.494 52.051C37.3587 51.4006 36.4657 50.515 35.815 49.3941C35.1643 48.2594 34.8389 46.9587 34.8389 45.4919C34.8389 44.025 35.1643 42.7312 35.815 41.6103C36.4657 40.4756 37.3587 39.59 38.494 38.9535C39.6431 38.3031 40.9584 37.9779 42.4398 37.9779C43.3259 37.9779 44.1428 38.1094 44.8904 38.3723C45.638 38.6352 46.2957 39.0019 46.8633 39.4724C47.4448 39.929 47.9294 40.4549 48.317 41.0499L45.9911 42.5029C45.7557 42.1293 45.4442 41.7971 45.0565 41.5066C44.6827 41.216 44.2674 40.9876 43.8105 40.8216C43.3536 40.6555 42.8967 40.5725 42.4398 40.5725C41.526 40.5725 40.7161 40.787 40.01 41.216C39.3039 41.6311 38.7501 42.2054 38.3486 42.9388C37.9471 43.6722 37.7464 44.5232 37.7464 45.4919C37.7464 46.4467 37.9402 47.2977 38.3278 48.0449C38.7293 48.7922 39.2901 49.3803 40.01 49.8093C40.7299 50.2244 41.5606 50.432 42.5021 50.432C43.2359 50.432 43.8867 50.2867 44.4543 49.9961C45.0358 49.7055 45.4927 49.2973 45.8249 48.7714C46.1572 48.2456 46.3234 47.6367 46.3234 46.9448L49.0231 46.5297C49.0231 47.8996 48.7393 49.0689 48.1716 50.0376C47.6179 51.0062 46.8425 51.7466 45.8457 52.2586C44.8627 52.7567 43.7274 53.0058 42.4398 53.0058ZM42.9174 47.1939V44.9729H49.0231V46.7373L47.4863 47.1939H42.9174ZM57.8735 53.0058C56.3921 53.0058 55.0768 52.6875 53.9277 52.051C52.7924 51.4006 51.8994 50.515 51.2487 49.3941C50.598 48.2594 50.2726 46.9587 50.2726 45.4919C50.2726 44.025 50.598 42.7312 51.2487 41.6103C51.8994 40.4756 52.7924 39.59 53.9277 38.9535C55.0768 38.3031 56.3921 37.9779 57.8735 37.9779C58.7595 37.9779 59.5764 38.1094 60.324 38.3723C61.0716 38.6352 61.7293 39.0019 62.2969 39.4724C62.8784 39.929 63.363 40.4549 63.7506 41.0499L61.4247 42.5029C61.1893 42.1293 60.8778 41.7971 60.4901 41.5066C60.1163 41.216 59.701 40.9876 59.2441 40.8216C58.7872 40.6555 58.3303 40.5725 57.8735 40.5725C56.9597 40.5725 56.1498 40.787 55.4437 41.216C54.7376 41.6311 54.1838 42.2054 53.7823 42.9388C53.3808 43.6722 53.18 44.5232 53.18 45.4919C53.18 46.4467 53.3739 47.2977 53.7615 48.0449C54.163 48.7922 54.7237 49.3803 55.4437 49.8093C56.1636 50.2244 56.9943 50.432 57.9358 50.432C58.6695 50.432 59.3203 50.2867 59.8879 49.9961C60.4694 49.7055 60.9263 49.2973 61.2585 48.7714C61.5908 48.2456 61.757 47.6367 61.757 46.9448L64.4567 46.5297C64.4567 47.8996 64.1729 49.0689 63.6052 50.0376C63.0515 51.0062 62.2761 51.7466 61.2793 52.2586C60.2963 52.7567 59.161 53.0058 57.8735 53.0058ZM58.3511 47.1939V44.9729H64.4567V46.7373L62.9199 47.1939H58.3511ZM66.5577 52.7567V38.227H75.7576V40.8216H69.4028V44.1219H74.8854V46.6542H69.4028V50.1621H75.8407V52.7567H66.5577ZM78.7866 52.7567V38.227H84.1861C85.2106 38.227 86.1175 38.4276 86.9066 38.8289C87.6958 39.2302 88.3119 39.7837 88.7549 40.4895C89.198 41.1814 89.4195 41.9909 89.4195 42.918C89.4195 43.8313 89.1841 44.6477 88.7134 45.3673C88.2565 46.073 87.6266 46.6266 86.8236 47.0279C86.0206 47.4153 85.1068 47.609 84.0823 47.609H81.6317V52.7567H78.7866ZM86.782 52.7567L83.4177 46.9241L85.5983 45.3673L90.001 52.7567H86.782ZM81.6317 45.0144H84.2069C84.6361 45.0144 85.0168 44.9245 85.3491 44.7446C85.6952 44.5647 85.9652 44.3156 86.159 43.9974C86.3667 43.6791 86.4705 43.3193 86.4705 42.918C86.4705 42.2953 86.2421 41.7902 85.7852 41.4028C85.3422 41.0153 84.7676 40.8216 84.0615 40.8216H81.6317V45.0144ZM97.0524 53.0058C96.3186 53.0058 95.6333 52.9159 94.9964 52.736C94.3595 52.5561 93.7919 52.307 93.2935 51.9887C92.7951 51.6566 92.3797 51.2899 92.0474 50.8886C91.729 50.4873 91.5213 50.0653 91.4244 49.6224L94.2072 48.7922C94.3872 49.2627 94.7057 49.6709 95.1625 50.0168C95.6194 50.3489 96.194 50.5219 96.8862 50.5357C97.62 50.5496 98.2153 50.3904 98.6722 50.0583C99.1429 49.7262 99.3783 49.2973 99.3783 48.7714C99.3783 48.3148 99.1914 47.9342 98.8176 47.6298C98.4576 47.3115 97.9592 47.0694 97.3223 46.9033L95.4325 46.4051C94.7264 46.2253 94.1034 45.9554 93.5635 45.5956C93.0235 45.222 92.6012 44.7654 92.2966 44.2257C91.9921 43.686 91.8398 43.0564 91.8398 42.3368C91.8398 40.9669 92.2897 39.9014 93.1896 39.1403C94.1034 38.3654 95.391 37.9779 97.0524 37.9779C97.98 37.9779 98.7899 38.1163 99.4821 38.393C100.188 38.656 100.777 39.0365 101.247 39.5347C101.718 40.0328 102.078 40.6209 102.327 41.299L99.5652 42.15C99.3991 41.6795 99.0945 41.2782 98.6514 40.9461C98.2084 40.614 97.6477 40.448 96.9693 40.448C96.277 40.448 95.7302 40.6071 95.3287 40.9254C94.941 41.2436 94.7472 41.6934 94.7472 42.2746C94.7472 42.7312 94.8995 43.091 95.2041 43.3539C95.5225 43.6168 95.9517 43.8175 96.4916 43.9559L98.4022 44.4333C99.6483 44.7377 100.617 45.2843 101.31 46.073C102.002 46.8618 102.348 47.7405 102.348 48.7091C102.348 49.5671 102.14 50.3213 101.725 50.9716C101.31 51.6082 100.707 52.1063 99.9183 52.4661C99.1291 52.8259 98.1738 53.0058 97.0524 53.0058Z" fill="#004777"/>
<path d="M13.4955 74.6483C12.6371 74.6483 11.8756 74.4822 11.211 74.1501C10.5465 73.818 10.0273 73.3613 9.65349 72.7802C9.27968 72.199 9.09277 71.5278 9.09277 70.7667C9.09277 70.2409 9.18969 69.7566 9.38352 69.3138C9.57734 68.871 9.84732 68.4627 10.1934 68.0891C10.5396 67.7017 10.9272 67.3626 11.3564 67.072L14.0977 65.1832C14.3192 65.031 14.5546 64.858 14.8038 64.6643C15.0668 64.4705 15.2953 64.2422 15.4891 63.9793C15.6968 63.7025 15.8006 63.3912 15.8006 63.0452C15.8006 62.6439 15.6553 62.3326 15.3645 62.1112C15.0738 61.8759 14.7069 61.7583 14.2638 61.7583C13.8485 61.7583 13.4955 61.8759 13.2047 62.1112C12.9278 62.3464 12.7894 62.6509 12.7894 63.0245C12.7894 63.3843 12.9001 63.7025 13.1216 63.9793C13.3432 64.2422 13.5993 64.5536 13.89 64.9133L16.6521 68.2344L21.7401 74.3784H18.5419L14.6792 69.7704L11.7718 66.2418C11.3979 65.7575 11.0864 65.3354 10.8372 64.9756C10.6019 64.602 10.4288 64.263 10.318 63.9585C10.2073 63.6403 10.1519 63.322 10.1519 63.0037C10.1519 62.3395 10.325 61.7514 10.6711 61.2394C11.0311 60.7274 11.5087 60.3261 12.104 60.0355C12.7132 59.7311 13.3916 59.5789 14.1392 59.5789C14.9561 59.5789 15.6829 59.7311 16.3198 60.0355C16.9567 60.3261 17.4551 60.7343 17.8151 61.2602C18.1889 61.786 18.3758 62.4018 18.3758 63.1075C18.3758 63.6749 18.2304 64.2007 17.9397 64.685C17.6489 65.1555 17.2197 65.6329 16.6521 66.1172C16.0983 66.6016 15.4199 67.1205 14.6169 67.674L13.1424 68.6911C12.9209 68.8433 12.7132 69.0163 12.5194 69.21C12.3394 69.4037 12.194 69.6251 12.0833 69.8742C11.9725 70.1095 11.9171 70.3862 11.9171 70.7045C11.9171 71.175 12.0763 71.5624 12.3948 71.8669C12.7271 72.1713 13.1493 72.3235 13.6616 72.3235C14.2431 72.3235 14.8176 72.2336 15.3853 72.0537C15.9529 71.8738 16.4652 71.6039 16.9221 71.2442C17.3928 70.8844 17.7597 70.4416 18.0227 69.9157C18.2858 69.3899 18.4173 68.7879 18.4173 68.1099H20.9717C20.9717 69.383 20.6533 70.5177 20.0164 71.514C19.3795 72.4965 18.5004 73.2645 17.3789 73.818C16.2575 74.3715 14.963 74.6483 13.4955 74.6483Z" fill="#9ED8DB"/>
<path d="M31.4316 74.3784V59.8487H36.8311C37.8557 59.8487 38.7625 60.0563 39.5517 60.4714C40.3408 60.8727 40.9569 61.44 41.4 62.1734C41.843 62.893 42.0645 63.7302 42.0645 64.685C42.0645 65.626 41.8499 66.4632 41.4207 67.1966C40.9915 67.93 40.4031 68.5112 39.6555 68.9401C38.9079 69.3553 38.0426 69.5628 37.0596 69.5628H34.2768V74.3784H31.4316ZM34.2768 66.9475H36.9973C37.6342 66.9475 38.1533 66.7399 38.5548 66.3248C38.9702 65.8958 39.1779 65.3492 39.1779 64.685C39.1779 64.0208 38.9494 63.4811 38.4925 63.066C38.0495 62.6508 37.4749 62.4433 36.7688 62.4433H34.2768V66.9475ZM50.4658 74.669C49.2613 74.669 48.216 74.4338 47.3299 73.9633C46.4438 73.4928 45.7585 72.8355 45.2739 71.9914C44.8032 71.1334 44.5679 70.1233 44.5679 68.9609V59.8487H47.413V68.9609C47.413 69.5836 47.5376 70.1302 47.7868 70.6007C48.0498 71.0573 48.4098 71.4102 48.8667 71.6593C49.3374 71.9084 49.8843 72.0329 50.5073 72.0329C51.1303 72.0329 51.6703 71.9084 52.1272 71.6593C52.5979 71.4102 52.9579 71.0573 53.2071 70.6007C53.4701 70.1302 53.6016 69.5836 53.6016 68.9609V59.8487H56.4468V68.9609C56.4468 70.1233 56.1976 71.1334 55.6992 71.9914C55.2146 72.8355 54.5223 73.4928 53.6224 73.9633C52.7363 74.4338 51.6841 74.669 50.4658 74.669ZM60.2286 74.3784V59.8487H63.3229L67.5595 66.1172L71.796 59.8487H74.8696V74.3784H72.0452V64.2906L67.5595 70.8913L63.0737 64.3114V74.3784H60.2286ZM78.8656 74.3784V59.8487H84.2651C85.2896 59.8487 86.1964 60.0563 86.9856 60.4714C87.7747 60.8727 88.3908 61.44 88.8339 62.1734C89.2769 62.893 89.4984 63.7302 89.4984 64.685C89.4984 65.626 89.2838 66.4632 88.8547 67.1966C88.4255 67.93 87.8371 68.5112 87.0894 68.9401C86.3418 69.3553 85.4765 69.5628 84.4935 69.5628H81.7107V74.3784H78.8656ZM81.7107 66.9475H84.4312C85.0681 66.9475 85.5873 66.7399 85.9888 66.3248C86.4041 65.8958 86.6118 65.3492 86.6118 64.685C86.6118 64.0208 86.3833 63.4811 85.9265 63.066C85.4834 62.6508 84.9089 62.4433 84.2028 62.4433H81.7107V66.9475ZM97.0898 74.6275C96.356 74.6275 95.6707 74.5376 95.0338 74.3577C94.3969 74.1778 93.8293 73.9287 93.3309 73.6104C92.8325 73.2783 92.4171 72.9116 92.0848 72.5103C91.7664 72.109 91.5587 71.687 91.4618 71.2441L94.2446 70.4139C94.4246 70.8844 94.7431 71.2926 95.1999 71.6385C95.6568 71.9706 96.2314 72.1436 96.9236 72.1574C97.6574 72.1713 98.2527 72.0121 98.7096 71.68C99.1804 71.3479 99.4157 70.919 99.4157 70.3931C99.4157 69.9365 99.2288 69.5559 98.855 69.2515C98.495 68.9332 97.9966 68.6911 97.3598 68.525L95.4699 68.0268C94.7638 67.847 94.1408 67.5771 93.6009 67.2173C93.0609 66.8437 92.6386 66.3871 92.334 65.8474C92.0295 65.3077 91.8772 64.6781 91.8772 63.9585C91.8772 62.5886 92.3271 61.5231 93.2271 60.762C94.1408 59.9871 95.4284 59.5996 97.0898 59.5996C98.0174 59.5996 98.8273 59.738 99.5195 60.0147C100.226 60.2777 100.814 60.6582 101.285 61.1564C101.756 61.6545 102.115 62.2426 102.365 62.9207L99.6026 63.7717C99.4365 63.3012 99.1319 62.8999 98.6889 62.5678C98.2458 62.2357 97.6851 62.0697 97.0067 62.0697C96.3145 62.0697 95.7676 62.2288 95.3661 62.5471C94.9784 62.8653 94.7846 63.3151 94.7846 63.8963C94.7846 64.3529 94.9369 64.7127 95.2415 64.9756C95.5599 65.2385 95.9891 65.4392 96.5291 65.5776L98.4396 66.055C99.6857 66.3594 100.655 66.906 101.347 67.6947C102.039 68.4835 102.385 69.3622 102.385 70.3308C102.385 71.1888 102.178 71.943 101.762 72.5933C101.347 73.2299 100.745 73.728 99.9557 74.0878C99.1665 74.4476 98.2112 74.6275 97.0898 74.6275Z" fill="#004777"/>
<path d="M56.7069 19.334C58.1407 19.334 59.3028 20.4957 59.3028 21.9286V30.4278H42.833V21.9286C42.8331 20.4957 43.9951 19.334 45.4289 19.334H56.7069ZM53.5221 5.01941C54.9559 5.0195 56.1181 6.18118 56.1181 7.614V17.5448H45.7348V7.614C45.7348 6.18114 46.8969 5.01941 48.3307 5.01941H53.5221ZM51.1053 7.88216C49.919 7.88224 48.9572 8.8438 48.9572 10.0296C48.9572 11.2153 49.919 12.1765 51.1053 12.1765C52.2917 12.1765 53.2539 11.2153 53.2539 10.0296C53.2539 8.8438 52.2917 7.88224 51.1053 7.88216Z" fill="#9ED8DB"/>
<path d="M74.7007 22.7838C73.2673 22.7839 72.1048 23.9455 72.1048 25.3784V30.299H86.7851V25.3784C86.7851 23.9456 85.6226 22.7839 84.1892 22.7838H74.7007ZM92.6666 13.8374C91.5145 13.8375 90.6842 14.9413 91.0039 16.0473L92.5926 21.5431C92.6584 21.7714 92.7709 21.9838 92.9223 22.1668L97.8844 28.1521L98.4408 28.3374C99.1681 28.5796 99.8941 27.9673 99.7773 27.2103C99.7093 26.7678 99.5644 26.3406 99.3489 25.9481L96.8746 21.4388C96.7128 21.1437 96.586 20.8308 96.4964 20.5063L95.0116 15.1086C94.8048 14.3578 94.122 13.8374 93.3428 13.8374H92.6666ZM76.9656 3.45947C76.2492 3.45947 75.5504 3.6815 74.9659 4.09503L69.1965 8.17567C67.0051 9.72576 67.3369 13.0711 69.7905 14.1609L71.84 15.0714C73.0899 15.6267 73.8951 16.8656 73.8951 18.2327V21.3526H85.1735L86.0985 18.1521C86.9651 15.1545 89.3797 12.8559 92.4174 12.1368L94.3038 11.69V3.45947H76.9656ZM96.0941 11.69H100.808C101.764 11.69 102.539 10.9156 102.539 9.96032V5.1892C102.539 4.2339 101.764 3.45947 100.808 3.45947H96.0941V11.69Z" fill="#9ED8DB"/>
<path d="M21.991 19.8467H17.7841C16.3504 19.8467 15.1882 21.0083 15.1882 22.4412V30.9404H33.8066V22.4412C33.8066 21.0083 32.6444 19.8467 31.2107 19.8467H27.3616V9.46871H32.4339C33.3896 9.46871 34.1644 8.69418 34.1645 7.73898V4.75671C34.1645 3.8014 33.3897 3.02698 32.4339 3.02698H11.7565C11.2344 3.027 10.719 3.14512 10.249 3.37242L4.44028 6.18196C2.78543 6.98231 3.35565 9.46871 5.19405 9.46871H21.991V19.8467Z" fill="#004777"/>
</g>
<defs>
<clipPath id="clip0_119_568">
<rect width="106" height="80" fill="white"/>
</clipPath>
</defs>
</svg>
