<svg width="20" height="21" viewBox="0 0 20 21" fill="none" xmlns="http://www.w3.org/2000/svg">
<path opacity="0.34" d="M15.8337 8C15.8337 9.20833 15.4753 10.3167 14.8587 11.2417C13.9587 12.575 12.5337 13.5167 10.8753 13.7583C10.592 13.8083 10.3003 13.8333 10.0003 13.8333C9.70033 13.8333 9.40866 13.8083 9.12533 13.7583C7.46699 13.5167 6.04199 12.575 5.14199 11.2417C4.52533 10.3167 4.16699 9.20833 4.16699 8C4.16699 4.775 6.77533 2.16666 10.0003 2.16666C13.2253 2.16666 15.8337 4.775 15.8337 8Z" stroke="#004777" stroke-width="1.5" stroke-linecap="round" stroke-linejoin="round"/>
<path d="M17.7082 15.8917L16.3332 16.2167C16.0249 16.2917 15.7832 16.525 15.7166 16.8333L15.4249 18.0583C15.2666 18.725 14.4166 18.925 13.9749 18.4L9.9999 13.8333L6.0249 18.4083C5.58324 18.9333 4.73324 18.7333 4.5749 18.0667L4.28324 16.8417C4.20824 16.5333 3.96657 16.2917 3.66657 16.225L2.29157 15.9C1.65824 15.75 1.43324 14.9583 1.89157 14.5L5.14157 11.25C6.04157 12.5833 7.46657 13.525 9.1249 13.7667C9.40824 13.8167 9.6999 13.8417 9.9999 13.8417C10.2999 13.8417 10.5916 13.8167 10.8749 13.7667C12.5332 13.525 13.9582 12.5833 14.8582 11.25L18.1082 14.5C18.5666 14.95 18.3416 15.7417 17.7082 15.8917Z" stroke="#004777" stroke-width="1.5" stroke-linecap="round" stroke-linejoin="round"/>
<path opacity="0.4" d="M10.4836 5.48334L10.9753 6.46666C11.042 6.6 11.217 6.73333 11.3753 6.75833L12.267 6.90833C12.8336 7 12.967 7.41667 12.5586 7.825L11.867 8.51666C11.7503 8.63332 11.6836 8.85834 11.7253 9.025L11.9253 9.88333C12.0836 10.5583 11.7253 10.825 11.1253 10.4667L10.292 9.97499C10.142 9.88332 9.89197 9.88332 9.74197 9.97499L8.90864 10.4667C8.30864 10.8167 7.9503 10.5583 8.10864 9.88333L8.30864 9.025C8.34197 8.86667 8.28364 8.63332 8.16697 8.51666L7.4753 7.825C7.06697 7.41667 7.2003 7.00833 7.76697 6.90833L8.65864 6.75833C8.80864 6.73333 8.98364 6.6 9.0503 6.46666L9.54197 5.48334C9.78364 4.95 10.217 4.95 10.4836 5.48334Z" stroke="#9ED8DB" stroke-width="1.5" stroke-linecap="round" stroke-linejoin="round"/>
</svg>
