<svg width="26" height="40" viewBox="0 0 26 40" fill="none" xmlns="http://www.w3.org/2000/svg">
<g clip-path="url(#clip0_121_608)">
<path d="M21.6741 22.4734C23.8833 22.4734 25.6741 24.2643 25.6741 26.4734V39.5763H0.295898V26.4734C0.295958 24.2643 2.08679 22.4734 4.2959 22.4734H21.6741ZM16.7666 0.405029C18.9755 0.405123 20.7665 2.19607 20.7666 4.40503V19.7149H4.76725V4.40503C4.7674 2.19601 6.5582 0.405029 8.76727 0.405029H16.7666ZM13.0427 4.81844C11.2146 4.81853 9.73287 6.30097 9.73274 8.12901C9.73281 9.95708 11.2146 11.4388 13.0427 11.4389C14.8707 11.4388 16.3531 9.95708 16.3532 8.12901C16.3531 6.30098 14.8707 4.81853 13.0427 4.81844Z" fill="#004777"/>
</g>
<defs>
<clipPath id="clip0_121_608">
<rect width="26" height="40" fill="white"/>
</clipPath>
</defs>
</svg>
