<svg width="40" height="40" viewBox="0 0 40 40" fill="none" xmlns="http://www.w3.org/2000/svg">
<path fill-rule="evenodd" clip-rule="evenodd" d="M28.2131 40H7.26404C5.53 40 4.12402 38.594 4.12402 36.86V7.66256C4.12402 5.92853 5.53 4.52255 7.26404 4.52255H9.56046C10.076 4.52255 10.4743 4.94435 10.4743 5.43644C10.4743 5.95196 10.076 6.35032 9.56046 6.35032H7.26404C6.53761 6.35032 5.95179 6.93614 5.95179 7.66256V36.86C5.95179 37.5864 6.53761 38.1722 7.26404 38.1722H28.2131C28.9161 38.1722 29.5019 37.5864 29.5019 36.86V34.5401C29.5019 34.048 29.9237 33.6497 30.4158 33.6497C30.9313 33.6497 31.3296 34.048 31.3296 34.5401V36.86C31.3296 38.594 29.9237 40 28.2131 40Z" fill="#9ED8DB"/>
<path fill-rule="evenodd" clip-rule="evenodd" d="M32.7355 35.454H11.7865C10.0525 35.454 8.64648 34.048 8.64648 32.3374V3.14001C8.64648 1.40598 10.0525 0 11.7865 0H26.0806C26.104 0 26.1274 0 26.1274 0C26.3618 0 26.5727 0.0937317 26.7133 0.234329C26.7133 0.234329 26.7133 0.234329 26.7133 0.257762H26.7367L35.5943 9.11541C35.7584 9.27944 35.8521 9.49033 35.8521 9.72466C35.8521 9.7481 35.8521 9.7481 35.8521 9.77153V32.3374C35.8521 34.048 34.4461 35.454 32.7355 35.454ZM25.1901 1.82777H11.7865C11.0601 1.82777 10.4743 2.41359 10.4743 3.14001V32.3374C10.4743 33.0404 11.0601 33.6262 11.7865 33.6262H32.7355C33.4385 33.6262 34.0243 33.0404 34.0243 32.3374V10.6854H26.104C25.5885 10.6854 25.1901 10.2636 25.1901 9.77153V1.82777ZM27.0179 8.85765H32.7355L27.0179 3.11658V8.85765Z" fill="#004777"/>
<path fill-rule="evenodd" clip-rule="evenodd" d="M30.1344 15.7938H14.3641C13.872 15.7938 13.4502 15.3954 13.4502 14.8799C13.4502 14.3878 13.872 13.966 14.3641 13.966H30.1344C30.65 13.966 31.0483 14.3878 31.0483 14.8799C31.0483 15.3954 30.65 15.7938 30.1344 15.7938Z" fill="#004777"/>
<path fill-rule="evenodd" clip-rule="evenodd" d="M30.1344 20.621H14.3641C13.872 20.621 13.4502 20.2226 13.4502 19.7071C13.4502 19.215 13.872 18.7932 14.3641 18.7932H30.1344C30.65 18.7932 31.0483 19.215 31.0483 19.7071C31.0483 20.2226 30.65 20.621 30.1344 20.621Z" fill="#004777"/>
<path fill-rule="evenodd" clip-rule="evenodd" d="M30.1344 25.4481H14.3641C13.872 25.4481 13.4502 25.0498 13.4502 24.5342C13.4502 24.0422 13.872 23.6204 14.3641 23.6204H30.1344C30.65 23.6204 31.0483 24.0422 31.0483 24.5342C31.0483 25.0498 30.65 25.4481 30.1344 25.4481Z" fill="#004777"/>
<path fill-rule="evenodd" clip-rule="evenodd" d="M30.1344 30.2753H14.3641C13.872 30.2753 13.4502 29.877 13.4502 29.3615C13.4502 28.8694 13.872 28.4476 14.3641 28.4476H30.1344C30.65 28.4476 31.0483 28.8694 31.0483 29.3615C31.0483 29.877 30.65 30.2753 30.1344 30.2753Z" fill="#004777"/>
<path fill-rule="evenodd" clip-rule="evenodd" d="M22.6125 10.9666H14.3641C13.872 10.9666 13.4502 10.5683 13.4502 10.0527C13.4502 9.56065 13.872 9.13885 14.3641 9.13885H22.6125C23.1046 9.13885 23.5264 9.56065 23.5264 10.0527C23.5264 10.5683 23.1046 10.9666 22.6125 10.9666Z" fill="#004777"/>
<path fill-rule="evenodd" clip-rule="evenodd" d="M19.1913 6.13941H14.3641C13.872 6.13941 13.4502 5.74105 13.4502 5.22553C13.4502 4.73344 13.872 4.31165 14.3641 4.31165H19.1913C19.6834 4.31165 20.1051 4.73344 20.1051 5.22553C20.1051 5.74105 19.6834 6.13941 19.1913 6.13941Z" fill="#004777"/>
</svg>
