<svg width="40" height="40" viewBox="0 0 40 40" fill="none" xmlns="http://www.w3.org/2000/svg">
<path fill-rule="evenodd" clip-rule="evenodd" d="M29.6314 36.6207H10.373C7.49288 36.6207 5.15039 34.2782 5.15039 31.3981C5.15039 28.518 7.49288 26.1803 10.373 26.1803H29.6314C32.5067 26.1803 34.8492 28.518 34.8492 31.3981C34.8492 34.2782 32.5067 36.6207 29.6314 36.6207ZM10.373 27.3323C8.13131 27.3323 6.30244 29.1564 6.30244 31.3981C6.30244 33.6398 8.13131 35.4639 10.373 35.4639H29.6314C31.8731 35.4639 33.6971 33.6398 33.6971 31.3981C33.6971 29.1564 31.8731 27.3323 29.6314 27.3323H10.373Z" fill="#9ED8DB"/>
<path fill-rule="evenodd" clip-rule="evenodd" d="M20.0024 34.8878C18.0776 34.8878 16.5127 33.3229 16.5127 31.3981C16.5127 29.4732 18.0776 27.9083 20.0024 27.9083C21.9273 27.9083 23.4922 29.4732 23.4922 31.3981C23.4922 33.3229 21.9273 34.8878 20.0024 34.8878ZM20.0024 29.0604C18.7112 29.0604 17.6647 30.1116 17.6647 31.3981C17.6647 32.6845 18.7112 33.7358 20.0024 33.7358C21.2889 33.7358 22.3401 32.6845 22.3401 31.3981C22.3401 30.1116 21.2889 29.0604 20.0024 29.0604Z" fill="#9ED8DB"/>
<path fill-rule="evenodd" clip-rule="evenodd" d="M10.6128 34.8878C8.68791 34.8878 7.12305 33.3229 7.12305 31.3981C7.12305 29.4732 8.68791 27.9083 10.6128 27.9083C12.5377 27.9083 14.1025 29.4732 14.1025 31.3981C14.1025 33.3229 12.5377 34.8878 10.6128 34.8878ZM10.6128 29.0604C9.32633 29.0604 8.27509 30.1116 8.27509 31.3981C8.27509 32.6845 9.32633 33.7358 10.6128 33.7358C11.904 33.7358 12.9505 32.6845 12.9505 31.3981C12.9505 30.1116 11.904 29.0604 10.6128 29.0604Z" fill="#9ED8DB"/>
<path fill-rule="evenodd" clip-rule="evenodd" d="M29.3862 34.8878C27.4613 34.8878 25.8965 33.3229 25.8965 31.3981C25.8965 29.4732 27.4613 27.9083 29.3862 27.9083C31.3111 27.9083 32.876 29.4732 32.876 31.3981C32.876 33.3229 31.3111 34.8878 29.3862 34.8878ZM29.3862 29.0604C28.0998 29.0604 27.0485 30.1116 27.0485 31.3981C27.0485 32.6845 28.0998 33.7358 29.3862 33.7358C30.6775 33.7358 31.7239 32.6845 31.7239 31.3981C31.7239 30.1116 30.6775 29.0604 29.3862 29.0604Z" fill="#9ED8DB"/>
<path fill-rule="evenodd" clip-rule="evenodd" d="M29.5643 24.9322H21.452C21.1304 24.9322 20.876 24.673 20.876 24.3514V16.2438C20.876 15.9222 21.1304 15.663 21.452 15.663H29.5643C29.8811 15.663 30.1403 15.9222 30.1403 16.2438V24.3514C30.1403 24.673 29.8811 24.9322 29.5643 24.9322ZM22.028 23.7753H28.9883V16.8199H22.028V23.7753Z" fill="#004777"/>
<path fill-rule="evenodd" clip-rule="evenodd" d="M18.5526 24.9322H10.4403C10.1187 24.9322 9.86426 24.673 9.86426 24.3514V16.2438C9.86426 15.9222 10.1187 15.663 10.4403 15.663H18.5526C18.8694 15.663 19.1286 15.9222 19.1286 16.2438V24.3514C19.1286 24.673 18.8694 24.9322 18.5526 24.9322ZM11.0163 23.7753H17.9766V16.8199H11.0163V23.7753Z" fill="#004777"/>
<path fill-rule="evenodd" clip-rule="evenodd" d="M13.0565 20.876C12.9797 20.876 12.8981 20.8568 12.8213 20.8232C12.6149 20.732 12.4805 20.5256 12.4805 20.3V16.2438C12.4805 15.9222 12.7397 15.663 13.0613 15.663H15.9318C16.2486 15.663 16.5078 15.9222 16.5078 16.2438V20.3C16.5078 20.5256 16.3734 20.732 16.167 20.8232C15.9606 20.9144 15.7158 20.8808 15.5478 20.7272L14.4917 19.7912L13.4405 20.7272C13.3349 20.8232 13.1957 20.876 13.0565 20.876ZM14.4917 18.4423C14.631 18.4423 14.7654 18.4951 14.8758 18.5911L15.3558 19.0136V16.8199H13.6373V19.0136L14.1125 18.5911C14.2181 18.4951 14.3573 18.4423 14.4917 18.4423Z" fill="#004777"/>
<path fill-rule="evenodd" clip-rule="evenodd" d="M24.0731 20.876C23.9915 20.876 23.9099 20.8568 23.8379 20.8232C23.6267 20.732 23.4971 20.5256 23.4971 20.3V16.2438C23.4971 15.9222 23.7515 15.663 24.0731 15.663H26.9436C27.2604 15.663 27.5196 15.9222 27.5196 16.2438V20.3C27.5196 20.5256 27.3852 20.732 27.1788 20.8232C26.9724 20.9144 26.7276 20.8808 26.5596 20.7272L25.5084 19.7912L24.4571 20.7272C24.3467 20.8232 24.2123 20.876 24.0731 20.876ZM25.5084 18.4423C25.6428 18.4423 25.782 18.4951 25.8876 18.5911L26.3676 19.0136V16.8199H24.6491V19.0136L25.1243 18.5911C25.2299 18.4951 25.3691 18.4423 25.5084 18.4423Z" fill="#004777"/>
<path fill-rule="evenodd" clip-rule="evenodd" d="M20.0023 14.1894C19.9159 14.1894 19.8295 14.1702 19.7479 14.1318C19.551 14.0358 19.4262 13.8342 19.4262 13.6134V11.7749H13.906C13.5844 11.7749 13.3252 11.5205 13.3252 11.1989V6.37468C13.3252 6.05307 13.5844 5.79866 13.906 5.79866H19.4262V3.96018C19.4262 3.73938 19.551 3.53777 19.7479 3.44176C19.9495 3.34576 20.1847 3.36976 20.3575 3.50897L26.4537 8.33316C26.5929 8.44356 26.6745 8.61157 26.6745 8.78918C26.6745 8.96198 26.5929 9.12999 26.4537 9.2404L20.3575 14.0646C20.2567 14.1462 20.1271 14.1894 20.0023 14.1894ZM14.482 10.6229H20.0023C20.3191 10.6229 20.5783 10.8821 20.5783 11.1989V12.4229L25.1673 8.78918L20.5783 5.15063V6.37468C20.5783 6.69149 20.3191 6.9507 20.0023 6.9507H14.482V10.6229Z" fill="#004777"/>
</svg>
