<svg width="93" height="78" viewBox="0 0 93 78" fill="none" xmlns="http://www.w3.org/2000/svg">
<mask id="path-1-outside-1_113_1209" maskUnits="userSpaceOnUse" x="0" y="0" width="93" height="78" fill="black">
<rect fill="white" width="93" height="78"/>
<path d="M38.8 1.91999L24.88 55.2L21.04 37.2C26.64 37.2 31.28 38.96 34.96 42.48C38.64 46 40.48 50.72 40.48 56.64C40.48 62.56 38.64 67.36 34.96 71.04C31.28 74.56 26.72 76.32 21.28 76.32C15.52 76.32 10.8 74.48 7.12 70.8C3.44 67.12 1.6 62.4 1.6 56.64C1.6 54.72 1.68 52.96 1.84 51.36C2.16 49.6 2.72 47.52 3.52 45.12C4.32 42.72 5.44 39.68 6.88 36L19.6 1.91999H38.8ZM89.68 1.91999L75.76 55.2L71.92 37.2C77.52 37.2 82.16 38.96 85.84 42.48C89.52 46 91.36 50.72 91.36 56.64C91.36 62.56 89.52 67.36 85.84 71.04C82.16 74.56 77.6 76.32 72.16 76.32C66.4 76.32 61.68 74.48 58 70.8C54.32 67.12 52.48 62.4 52.48 56.64C52.48 54.72 52.56 52.96 52.72 51.36C53.04 49.6 53.6 47.52 54.4 45.12C55.2 42.72 56.32 39.68 57.76 36L70.48 1.91999H89.68Z"/>
</mask>
<path d="M38.8 1.91999L39.7675 2.17277L40.0948 0.919991H38.8V1.91999ZM24.88 55.2L23.902 55.4086L25.8475 55.4528L24.88 55.2ZM21.04 37.2V36.2H19.8042L20.062 37.4086L21.04 37.2ZM34.96 71.04L35.6512 71.7626L35.6593 71.755L35.6671 71.7471L34.96 71.04ZM7.12 70.8L6.41289 71.5071L7.12 70.8ZM1.84 51.36L0.856131 51.1811L0.848954 51.2206L0.844963 51.2605L1.84 51.36ZM3.52 45.12L2.57132 44.8038L3.52 45.12ZM6.88 36L7.81124 36.3644L7.81412 36.3571L7.81687 36.3497L6.88 36ZM19.6 1.91999V0.919991H18.9059L18.6631 1.57031L19.6 1.91999ZM89.68 1.91999L90.6475 2.17277L90.9748 0.919991H89.68V1.91999ZM75.76 55.2L74.782 55.4086L76.7275 55.4528L75.76 55.2ZM71.92 37.2V36.2H70.6842L70.942 37.4086L71.92 37.2ZM85.84 71.04L86.5312 71.7626L86.5393 71.755L86.5471 71.7471L85.84 71.04ZM58 70.8L58.7071 70.0929L58 70.8ZM52.72 51.36L51.7361 51.1811L51.729 51.2206L51.725 51.2605L52.72 51.36ZM57.76 36L58.6912 36.3644L58.6941 36.3571L58.6969 36.3497L57.76 36ZM70.48 1.91999V0.919991H69.7859L69.5431 1.57031L70.48 1.91999ZM38.8 1.91999L37.8325 1.66721L23.9125 54.9472L24.88 55.2L25.8475 55.4528L39.7675 2.17277L38.8 1.91999ZM24.88 55.2L25.858 54.9913L22.018 36.9914L21.04 37.2L20.062 37.4086L23.902 55.4086L24.88 55.2ZM21.04 37.2V38.2C26.4105 38.2 30.7942 39.8791 34.2688 43.2026L34.96 42.48L35.6512 41.7574C31.7658 38.0409 26.8695 36.2 21.04 36.2V37.2ZM34.96 42.48L34.2688 43.2026C37.7192 46.503 39.48 50.9446 39.48 56.64H40.48H41.48C41.48 50.4954 39.5608 45.497 35.6512 41.7574L34.96 42.48ZM40.48 56.64H39.48C39.48 62.3345 37.719 66.8667 34.2529 70.3329L34.96 71.04L35.6671 71.7471C39.561 67.8533 41.48 62.7855 41.48 56.64H40.48ZM34.96 71.04L34.2688 70.3174C30.7884 73.6464 26.4818 75.32 21.28 75.32V76.32V77.32C26.9582 77.32 31.7716 75.4736 35.6512 71.7626L34.96 71.04ZM21.28 76.32V75.32C15.7542 75.32 11.2987 73.5645 7.82711 70.0929L7.12 70.8L6.41289 71.5071C10.3013 75.3955 15.2858 77.32 21.28 77.32V76.32ZM7.12 70.8L7.82711 70.0929C4.35552 66.6213 2.6 62.1658 2.6 56.64H1.6H0.6C0.6 62.6342 2.52448 67.6187 6.41289 71.5071L7.12 70.8ZM1.6 56.64H2.6C2.6 54.7471 2.6789 53.0208 2.83504 51.4595L1.84 51.36L0.844963 51.2605C0.681097 52.8992 0.6 54.6929 0.6 56.64H1.6ZM1.84 51.36L2.82387 51.5389C3.13274 49.8401 3.67805 47.8081 4.46868 45.4362L3.52 45.12L2.57132 44.8038C1.76195 47.2319 1.18726 49.3599 0.856131 51.1811L1.84 51.36ZM3.52 45.12L4.46868 45.4362C5.26117 43.0588 6.37444 40.0362 7.81124 36.3644L6.88 36L5.94876 35.6356C4.50557 39.3238 3.37883 42.3812 2.57132 44.8038L3.52 45.12ZM6.88 36L7.81687 36.3497L20.5369 2.26966L19.6 1.91999L18.6631 1.57031L5.94313 35.6503L6.88 36ZM19.6 1.91999V2.91999H38.8V1.91999V0.919991H19.6V1.91999ZM89.68 1.91999L88.7125 1.66721L74.7925 54.9472L75.76 55.2L76.7275 55.4528L90.6475 2.17277L89.68 1.91999ZM75.76 55.2L76.738 54.9913L72.898 36.9914L71.92 37.2L70.942 37.4086L74.782 55.4086L75.76 55.2ZM71.92 37.2V38.2C77.2905 38.2 81.6742 39.8791 85.1488 43.2026L85.84 42.48L86.5312 41.7574C82.6458 38.0409 77.7495 36.2 71.92 36.2V37.2ZM85.84 42.48L85.1488 43.2026C88.5992 46.503 90.36 50.9446 90.36 56.64H91.36H92.36C92.36 50.4954 90.4408 45.497 86.5312 41.7574L85.84 42.48ZM91.36 56.64H90.36C90.36 62.3345 88.5991 66.8667 85.1329 70.3329L85.84 71.04L86.5471 71.7471C90.441 67.8533 92.36 62.7855 92.36 56.64H91.36ZM85.84 71.04L85.1488 70.3174C81.6684 73.6464 77.3618 75.32 72.16 75.32V76.32V77.32C77.8382 77.32 82.6516 75.4736 86.5312 71.7626L85.84 71.04ZM72.16 76.32V75.32C66.6342 75.32 62.1787 73.5645 58.7071 70.0929L58 70.8L57.2929 71.5071C61.1813 75.3955 66.1658 77.32 72.16 77.32V76.32ZM58 70.8L58.7071 70.0929C55.2355 66.6213 53.48 62.1658 53.48 56.64H52.48H51.48C51.48 62.6342 53.4045 67.6187 57.2929 71.5071L58 70.8ZM52.48 56.64H53.48C53.48 54.7471 53.5589 53.0208 53.715 51.4595L52.72 51.36L51.725 51.2605C51.5611 52.8992 51.48 54.6929 51.48 56.64H52.48ZM52.72 51.36L53.7039 51.5389C54.0127 49.8401 54.5581 47.8081 55.3487 45.4362L54.4 45.12L53.4513 44.8038C52.642 47.2319 52.0673 49.3599 51.7361 51.1811L52.72 51.36ZM54.4 45.12L55.3487 45.4362C56.1412 43.0588 57.2544 40.0362 58.6912 36.3644L57.76 36L56.8288 35.6356C55.3856 39.3238 54.2588 42.3812 53.4513 44.8038L54.4 45.12ZM57.76 36L58.6969 36.3497L71.4169 2.26966L70.48 1.91999L69.5431 1.57031L56.8231 35.6503L57.76 36ZM70.48 1.91999V2.91999H89.68V1.91999V0.919991H70.48V1.91999Z" fill="#9ED8DB" mask="url(#path-1-outside-1_113_1209)"/>
</svg>
