<svg width="51" height="40" viewBox="0 0 51 40" fill="none" xmlns="http://www.w3.org/2000/svg">
<g clip-path="url(#clip0_121_600)">
<path d="M10.1381 28.373C8.05184 28.3731 6.36041 30.0787 6.36034 32.1825V39.4072H27.7241V32.1825C27.724 30.0788 26.0325 28.3731 23.9463 28.373H10.1381ZM36.2831 15.2375C34.6069 15.2377 33.3983 16.8582 33.8636 18.4822L36.1755 26.5514C36.2715 26.8865 36.435 27.1985 36.6557 27.4671L43.8768 36.255L44.6866 36.5272C45.7446 36.8828 46.801 35.9837 46.6314 34.8723C46.5323 34.2226 46.3214 33.5954 46.0079 33.019L42.4073 26.3982C42.1717 25.965 41.9869 25.5055 41.8569 25.0291L39.6956 17.1038C39.3951 16.0015 38.4013 15.2375 37.2675 15.2375H36.2831ZM13.4339 0C12.3915 0 11.3745 0.325994 10.5236 0.933162L2.12755 6.92457C-1.06145 9.20051 -0.578081 14.1124 2.99206 15.7124L5.97481 17.0492C7.7937 17.8645 8.96556 19.6836 8.96556 21.6909V26.2717H25.3789L26.7249 21.5724C27.9858 17.1712 31.5002 13.7964 35.921 12.7406L38.6658 12.0846V0H13.4339ZM41.271 12.0846H48.1317C49.5227 12.0846 50.6503 10.9475 50.6503 9.54489V2.53968C50.6503 1.13705 49.5227 0 48.1317 0H41.271V12.0846Z" fill="#004777"/>
</g>
<defs>
<clipPath id="clip0_121_600">
<rect width="51" height="40" fill="white"/>
</clipPath>
</defs>
</svg>
