<svg width="20" height="21" viewBox="0 0 20 21" fill="none" xmlns="http://www.w3.org/2000/svg">
<path opacity="0.34" d="M9.99967 10.5C12.3009 10.5 14.1663 8.63452 14.1663 6.33334C14.1663 4.03215 12.3009 2.16667 9.99967 2.16667C7.69849 2.16667 5.83301 4.03215 5.83301 6.33334C5.83301 8.63452 7.69849 10.5 9.99967 10.5Z" stroke="#004777" stroke-width="1.5" stroke-linecap="round" stroke-linejoin="round"/>
<path d="M2.8418 18.8333C2.8418 15.6083 6.05015 13 10.0002 13" stroke="#004777" stroke-width="1.5" stroke-linecap="round" stroke-linejoin="round"/>
<path d="M15.1667 18.3334C16.6394 18.3334 17.8334 17.1394 17.8334 15.6667C17.8334 14.1939 16.6394 13 15.1667 13C13.6939 13 12.5 14.1939 12.5 15.6667C12.5 17.1394 13.6939 18.3334 15.1667 18.3334Z" stroke="#9ED8DB" stroke-width="1.5" stroke-linecap="round" stroke-linejoin="round"/>
<path d="M18.3333 18.8333L17.5 18" stroke="#004777" stroke-width="1.5" stroke-linecap="round" stroke-linejoin="round"/>
</svg>
